<?xml version="1.0" encoding="UTF-8" standalone="no"?>
<!-- Created with Inkscape (http://www.inkscape.org/) -->

<svg
   width="687.54834"
   height="177.99998"
   viewBox="0 0 181.91382 47.095827"
   version="1.1"
   id="svg5"
   inkscape:version="1.1.2 (0a00cf5339, 2022-02-04)"
   sodipodi:docname="logo.svg"
   xmlns:inkscape="http://www.inkscape.org/namespaces/inkscape"
   xmlns:sodipodi="http://sodipodi.sourceforge.net/DTD/sodipodi-0.dtd"
   xmlns="http://www.w3.org/2000/svg"
   xmlns:svg="http://www.w3.org/2000/svg">
  <sodipodi:namedview
     id="namedview7"
     pagecolor="#ffffff"
     bordercolor="#666666"
     borderopacity="1.0"
     inkscape:pageshadow="2"
     inkscape:pageopacity="0.0"
     inkscape:pagecheckerboard="0"
     inkscape:document-units="mm"
     showgrid="false"
     width="1024mm"
     units="px"
     inkscape:zoom="0.64052328"
     inkscape:cx="274.77534"
     inkscape:cy="110.84687"
     inkscape:window-width="1920"
     inkscape:window-height="935"
     inkscape:window-x="0"
     inkscape:window-y="32"
     inkscape:window-maximized="1"
     inkscape:current-layer="layer1"
     fit-margin-top="0"
     fit-margin-left="0"
     fit-margin-right="0"
     fit-margin-bottom="0" />
  <defs
     id="defs2" />
  <g
     inkscape:label="Layer 1"
     inkscape:groupmode="layer"
     id="layer1"
     transform="translate(-44.509752,-111.91875)">
    <path
       style="fill:#000000;stroke-width:0.264583"
       d="m 58.489499,159.01258 -13.979747,0.002 0.166902,-14.75052 0.166902,-14.75052 0.142748,-0.91374 0.142745,-0.91373 0.488905,-0.93835 0.488905,-0.93835 6.566609,-6.53881 6.566611,-6.53882 0.983689,-0.4065 0.983689,-0.40649 h 10.327248 10.327248 v 10.86105 10.86106 l -0.379077,0.71446 -0.379076,0.71447 -4.983117,4.96277 -4.98312,4.96277 -2.029185,-2.05235 -2.029182,-2.05247 4.216379,-4.34469 4.216378,-4.3447 0.008,-5.04801 0.008,-5.04802 0.15499,-1.91823 0.154988,-1.91823 h -6.906903 -6.9069 l -5.565005,5.49011 -5.565007,5.4901 -0.03454,11.24479 -0.03453,11.24479 -0.02421,0.48395 -0.02421,0.48395 10.449374,-0.0279 10.449374,-0.0279 6.354313,-6.34534 6.35431,-6.34534 1.913919,1.92677 1.913916,1.92678 v 0.50782 0.50781 l -6.813021,6.80773 -6.81302,6.80774 -1.058333,0.28352 -1.058334,0.28353 -13.979746,0.002 z m 163.997141,-1.20228 -1.05699,0.14613 -1.05833,-0.38615 -1.05833,-0.38615 -0.71128,-0.79072 -0.71127,-0.79073 -0.27944,-1.00629 -0.27944,-1.00629 0.0101,-1.05834 0.0101,-1.05833 0.3601,-1.0097 0.36011,-1.0097 0.48818,-0.53981 0.48817,-0.53981 0.98165,-0.50101 0.98165,-0.50101 h 0.88052 0.88052 l 1.18054,0.59531 1.18054,0.59531 0.64492,1.17848 0.64492,1.17847 v 1.63885 1.63885 l -0.65646,1.27563 -0.65646,1.27563 -0.78356,0.45762 -0.78356,0.45762 -1.05698,0.14614 z m -0.13094,-1.61665 0.66145,-0.14102 0.75478,-0.80283 0.75478,-0.80283 -0.0976,-1.93305 -0.0976,-1.93305 -0.61611,-0.65581 -0.61611,-0.65582 -0.63414,-0.15915 -0.63414,-0.15916 -0.89609,0.37441 -0.8961,0.37441 -0.46501,1.2176 -0.465,1.21761 0.16239,1.1848 0.1624,1.18481 0.33658,0.56646 0.33659,0.56645 0.79375,0.3486 0.79375,0.3486 z m -115.65257,1.38083 -2.3288,0.0513 -0.14369,-0.14369 -0.14369,-0.14369 v -5.01376 -5.01376 l 2.6107,0.10486 2.61069,0.10486 0.98925,0.75454 0.98926,0.75454 0.3688,0.88267 0.3688,0.88267 v 1.67222 1.67223 l -0.59531,1.17449 -0.59531,1.17449 -0.90095,0.5174 -0.90094,0.5174 z m 0.0382,-1.47084 h 0.80225 l 0.89997,-0.37603 0.89997,-0.37603 0.41445,-0.80146 0.41445,-0.80145 v -1.3492 -1.34919 l -0.4002,-0.77391 -0.40021,-0.77391 -0.82591,-0.21401 -0.82591,-0.21402 -0.89055,0.10397 -0.89055,0.10397 v 3.41063 3.41064 z m 9.2662,1.53812 -0.80803,0.0829 v -5.19291 -5.1929 l 0.80803,0.0829 0.80803,0.0829 v 5.02708 5.02709 z m 8.45652,0.039 -1.19476,-0.0103 -0.82573,-0.35939 -0.82573,-0.35938 -0.75873,-0.99473 -0.75872,-0.99475 -0.097,-1.92074 -0.097,-1.92074 0.29737,-0.90104 0.29737,-0.90104 0.91811,-0.88988 0.91812,-0.88987 1.55499,-0.11247 1.55499,-0.11248 0.98131,0.46566 0.98131,0.46566 0.34951,0.55576 0.34951,0.55576 0.17767,0.59532 0.17767,0.59531 h -0.79123 -0.79122 l -0.79375,-0.79375 -0.79375,-0.79375 h -0.66459 -0.66459 l -0.66601,0.25322 -0.66601,0.25321 -0.40954,0.79198 -0.40955,0.79198 v 1.36221 1.36222 l 0.40962,0.86322 0.40963,0.86322 0.66116,0.30125 0.66116,0.30124 h 0.66936 0.66936 l 0.77339,-0.7734 0.7734,-0.77339 v -0.41723 -0.41723 h -1.19062 -1.19063 v -0.66146 -0.66146 h 2.11667 2.11667 v 1.00227 1.00227 l -0.59532,1.16097 -0.59531,1.16096 -0.92191,0.4826 -0.92192,0.4826 -1.19475,-0.0103 z m 7.99951,-0.12277 -0.85989,0.04 v -5.11282 -5.11282 h 0.93175 0.93176 l -0.0719,5.07279 -0.0719,5.0728 z m 7.62239,0.13313 h -0.77814 l -0.15343,-0.24826 -0.15343,-0.24825 0.0474,-4.05123 0.0474,-4.05122 -1.4971,-0.0793 -1.49711,-0.0794 v -0.78054 -0.78055 h 3.93078 3.93078 l -0.0282,0.79315 -0.0282,0.79314 -1.52135,5.3e-4 -1.52136,5.3e-4 v 4.36563 4.36562 h -0.77813 z m 5.91112,0 h -0.89965 v -0.22856 -0.22856 l 1.59685,-4.93082 1.59685,-4.93081 h 1.12034 1.12034 l 1.64843,4.96838 1.64844,4.96838 v 0.191 0.19099 h -0.90478 -0.90478 l -0.4394,-1.32292 -0.4394,-1.32291 h -1.80444 -1.80443 l -0.31736,1.32291 -0.31736,1.32292 z m 3.4838,-4.23333 h 1.20846 l -0.18884,-0.59532 -0.18883,-0.59531 -0.44668,-1.31446 -0.44669,-1.31446 -0.57294,1.69656 -0.57293,1.69657 v 0.21321 0.21321 z m 10.44883,4.23333 h -3.15939 l -0.0818,-0.19844 -0.0818,-0.19844 v -4.89479 -4.89479 l 0.8599,-0.0829 0.85989,-0.0829 v 4.38239 4.38239 h 2.38125 2.38125 v 0.79375 0.79375 z m 13.55278,-0.0168 -1.26527,-0.0168 -0.55075,-0.2228 -0.55075,-0.2228 -0.70602,-0.83906 -0.70603,-0.83907 v -0.50886 -0.50887 h 0.92605 0.92604 v 0.38187 0.38187 l 0.58804,0.41188 0.58803,0.41188 h 0.98057 0.98056 l 0.41577,-0.41577 0.41578,-0.41578 v -0.47787 -0.47787 l -0.33073,-0.26176 -0.33073,-0.26176 -1.83629,-0.60272 -1.8363,-0.60271 -0.6111,-0.6111 -0.6111,-0.61111 v -0.81891 -0.81892 l 0.40135,-0.77613 0.40135,-0.77613 0.77614,-0.40135 0.77613,-0.40136 h 1.2169 1.21691 l 0.76455,0.39537 0.76454,0.39536 0.41294,0.58955 0.41294,0.58955 v 0.47029 0.4703 h -0.92604 -0.92605 v -0.24569 -0.24568 l -0.41577,-0.41577 -0.41577,-0.41577 h -0.88825 -0.88824 l -0.41577,0.41577 -0.41578,0.41578 v 0.51455 0.51454 l 0.8599,0.38579 0.85989,0.38579 1.16629,0.29285 1.16629,0.29284 0.75194,0.75194 0.75194,0.75194 v 0.82725 0.82724 l -0.41445,0.80145 -0.41445,0.80146 -0.89997,0.37603 -0.89997,0.37603 z m 10.25972,0.0168 h -0.77814 l -0.17028,-0.27552 -0.17028,-0.27552 0.0885,-3.99775 0.0885,-3.99776 -1.45521,-0.0262 -1.45521,-0.0262 -0.0829,-0.85989 -0.0829,-0.8599 h 3.98552 3.98551 v 0.86844 0.86844 l -1.5875,-0.0647 -1.5875,-0.0647 v 4.35562 4.35561 z m 10.50594,0 h -1.13711 l -0.90147,-0.48347 -0.90147,-0.48346 -0.48346,-0.90147 -0.48347,-0.90147 v -3.77444 -3.77444 h 0.92604 0.92605 v 3.67486 3.67485 l 0.46302,0.56652 0.46302,0.56653 0.93215,0.14912 0.93216,0.14912 0.65534,-0.52982 0.65535,-0.52983 0.13229,-3.76978 0.13229,-3.76978 0.85992,-0.0247 0.85991,-0.0247 -10e-4,3.83646 -0.001,3.83646 -0.53397,0.87582 -0.53397,0.87581 -0.91176,0.38096 -0.91174,0.38095 h -1.13711 z m 9.663,0 h -2.19289 v -5.02708 -5.02709 h 2.47441 2.47441 l 0.89903,0.59745 0.89902,0.59745 0.61457,1.18849 0.61458,1.18849 -0.1147,1.76452 -0.11469,1.76453 -0.50593,0.88131 -0.50594,0.8813 -1.17448,0.59532 -1.17449,0.59531 z m 1.06706,-1.65545 1.33912,-0.12868 0.59392,-0.69048 0.59393,-0.69048 0.17219,-1.14825 0.17219,-1.14824 -0.29725,-1.1039 -0.29725,-1.1039 -0.77089,-0.39864 -0.77089,-0.39865 h -1.17603 -1.17603 l -0.0382,3.18333 -0.0382,3.18333 0.17714,0.28661 0.17714,0.28662 z m 8.514,1.65545 h -0.92604 v -5.02708 -5.02709 h 0.92604 0.92605 v 5.02709 5.02708 z m 2.66339,-19.60134 -0.8113,-0.0222 -1.45521,-0.31744 -1.45521,-0.31744 -1.40323,-0.76848 -1.40323,-0.76848 -0.9026,-0.99908 -0.90261,-0.99907 -0.65124,-1.28516 -0.65124,-1.28516 -0.41636,-1.6068 -0.41636,-1.6068 v -2.39618 -2.39618 l 0.29238,-1.40209 0.29239,-1.40208 0.76136,-1.61573 0.76137,-1.61572 1.21501,-1.11996 1.21501,-1.11996 1.50155,-0.69134 1.50155,-0.69133 2.43074,-0.10954 2.43074,-0.10954 1.83831,0.55837 1.83832,0.55837 1.29809,1.16709 1.29809,1.1671 0.70811,1.44615 0.70811,1.44615 0.17471,1.09255 0.1747,1.09254 h -2.39454 -2.39455 l -0.30017,-0.90951 -0.30016,-0.9095 -0.55945,-0.71124 -0.55946,-0.71123 -1.07913,-0.49011 -1.07913,-0.49012 h -1.19062 -1.19063 l -1.05833,0.48599 -1.05833,0.48599 -0.45292,0.51005 -0.45291,0.51006 -0.59655,1.31325 -0.59655,1.31325 -0.009,3.04271 -0.009,3.0427 0.4868,1.39728 0.4868,1.39727 0.645,0.76653 0.64499,0.76653 1.17397,0.44835 1.17398,0.44834 1.57076,-0.11362 1.57075,-0.11362 0.92176,-0.70306 0.92176,-0.70306 0.49317,-1.19916 0.49317,-1.19917 2.44079,-0.001 2.44078,-0.001 -0.15561,0.85989 -0.15561,0.8599 -0.60114,1.35467 -0.60115,1.35467 -0.94208,1.04277 -0.94208,1.04277 -1.4034,0.68641 -1.40341,0.68642 -1.56995,0.28958 -1.56995,0.28958 -0.8113,-0.0222 z m -103.05463,-0.26011 -2.53167,-0.0177 -1.10485,-0.34547 -1.10485,-0.34547 -0.94111,-0.58163 -0.94112,-0.58164 -0.9217,-1.0768 -0.9217,-1.0768 -0.4303,-1.29553 -0.43031,-1.29553 0.14853,-0.38703 0.14851,-0.38704 2.32341,0.003 2.32341,0.003 0.44556,1.06076 0.44556,1.06076 1.14194,0.51824 1.14194,0.51824 1.5875,0.005 1.5875,0.005 0.92574,-0.4626 0.92574,-0.46261 0.34101,-0.7183 0.341,-0.7183 -0.22493,-0.8692 -0.22494,-0.8692 -0.83403,-0.56265 -0.83403,-0.56265 -3.17395,-0.86456 -3.17394,-0.86456 -1.53175,-0.84601 -1.53175,-0.84602 -0.79375,-1.27912 -0.79375,-1.27912 0.0104,-1.87162 0.0104,-1.87161 0.56177,-1.05833 0.56178,-1.05834 0.88308,-0.84634 0.88309,-0.84634 1.32291,-0.60887 1.32292,-0.60886 h 3.175 3.175 l 1.45521,0.6939 1.45521,0.6939 0.89985,0.8936 0.89986,0.8936 0.48339,1.05833 0.4834,1.05833 0.006,0.72761 0.006,0.7276 h -2.3777 -2.3777 l -0.37958,-0.90847 -0.37958,-0.90846 -0.75194,-0.38885 -0.75193,-0.38884 -1.26439,-0.1896 -1.26438,-0.18961 -1.18516,0.45262 -1.18516,0.45261 -0.39124,0.75658 -0.39124,0.75658 v 0.39756 0.39756 l 0.29894,0.65611 0.29894,0.65611 1.22282,0.52604 1.22281,0.52604 2.38085,0.57875 2.38085,0.57874 1.54119,0.81254 1.5412,0.81253 0.78299,0.94475 0.783,0.94475 0.41706,1.42518 0.41706,1.42518 -0.28241,1.40621 -0.2824,1.40622 -0.68458,1.08444 -0.68458,1.08444 -1.2451,0.78978 -1.2451,0.78979 -1.30479,0.38761 -1.30481,0.3876 z m 22.60375,-0.24688 h -2.51354 v -9.81061 -9.81061 l -3.43996,0.0872 -3.43996,0.0872 2.7e-4,-2.18281 2.6e-4,-2.18281 h 9.40341 9.40341 l -0.0769,2.1475 -0.0768,2.14751 -3.37343,-0.0442 -3.37344,-0.0442 v 9.80291 9.80292 h -2.51354 z m 21.56354,0 h -7.9375 v -11.90625 -11.90625 h 7.80521 7.8052 v 2.11666 2.11667 h -5.42395 -5.42396 v 2.77813 2.77812 h 5.02708 5.02708 v 2.11667 2.11666 h -5.02708 -5.02708 v 2.77813 2.77812 h 5.55625 5.55625 v 2.11667 2.11667 z m 16.27187,0 h -2.51354 v -11.90625 -11.90625 h 2.51354 2.51354 v 5.04215 5.04216 l 4.29948,-5.02872 4.29948,-5.02872 3.00888,-0.0134 3.00887,-0.0134 -1.55343,1.78594 -1.55344,1.78594 -2.97679,3.37641 -2.9768,3.37643 v 0.12398 0.12398 l 2.46577,3.37877 2.46576,3.37877 2.16444,3.09918 2.16445,3.09918 v 0.14196 0.14197 h -2.85236 -2.85236 l -3.40783,-4.96094 -3.40783,-4.96094 -0.0636,-0.084 -0.0636,-0.084 -1.07794,1.14235 -1.07794,1.14235 -0.007,3.9026 -0.007,3.90261 z m 24.60625,0 h -2.51354 v -11.90625 -11.90625 h 2.51354 2.51354 v 11.90625 11.90625 z"
       id="path21" />
  </g>
</svg>
